<svg viewBox="0 0 24 24" fill="none" xmlns="http://www.w3.org/2000/svg">
  <path d="M8.5 7C8.5 7.82843 7.82843 8.5 7 8.5C6.17157 8.5 5.5 7.82843 5.5 7C5.5 6.17157 6.17157 5.5 7 5.5C7.82843 5.5 8.5 6.17157 8.5 7Z" fill="currentColor"/>
  <path d="M8.5 12C8.5 12.8284 7.82843 13.5 7 13.5C6.17157 13.5 5.5 12.8284 5.5 12C5.5 11.1716 6.17157 10.5 7 10.5C7.82843 10.5 8.5 11.1716 8.5 12Z" fill="currentColor"/>
  <path d="M8.5 17C8.5 17.8284 7.82843 18.5 7 18.5C6.17157 18.5 5.5 17.8284 5.5 17C5.5 16.1716 6.17157 15.5 7 15.5C7.82843 15.5 8.5 16.1716 8.5 17Z" fill="currentColor"/>
  <path d="M18.5 7C18.5 7.82843 17.8284 8.5 17 8.5C16.1716 8.5 15.5 7.82843 15.5 7C15.5 6.17157 16.1716 5.5 17 5.5C17.8284 5.5 18.5 6.17157 18.5 7Z" fill="currentColor"/>
  <path d="M18.5 12C18.5 12.8284 17.8284 13.5 17 13.5C16.1716 13.5 15.5 12.8284 15.5 12C15.5 11.1716 16.1716 10.5 17 10.5C17.8284 10.5 18.5 11.1716 18.5 12Z" fill="currentColor"/>
  <path d="M18.5 17C18.5 17.8284 17.8284 18.5 17 18.5C16.1716 18.5 15.5 17.8284 15.5 17C15.5 16.1716 16.1716 15.5 17 15.5C17.8284 15.5 18.5 16.1716 18.5 17Z" fill="currentColor"/>
</svg>